<svg width="1200" height="630" viewBox="0 0 1200 630" fill="none" xmlns="http://www.w3.org/2000/svg">
  <defs>
    <linearGradient id="background" x1="66" y1="18" x2="1142" y2="630" gradientUnits="userSpaceOnUse">
      <stop stop-color="#FFFFFF"/>
      <stop offset="0.58" stop-color="#FBFCFF"/>
      <stop offset="1" stop-color="#F2F5FA"/>
    </linearGradient>
    <linearGradient id="headline" x1="74" y1="170" x2="650" y2="350" gradientUnits="userSpaceOnUse">
      <stop stop-color="#2782FB"/>
      <stop offset="0.48" stop-color="#7D73EB"/>
      <stop offset="1" stop-color="#FB6131"/>
    </linearGradient>
    <linearGradient id="panel" x1="777" y1="60" x2="1110" y2="574" gradientUnits="userSpaceOnUse">
      <stop stop-color="#141725"/>
      <stop offset="0.55" stop-color="#0B0B0F"/>
      <stop offset="1" stop-color="#161A2C"/>
    </linearGradient>
    <linearGradient id="orb" x1="795" y1="93" x2="1136" y2="461" gradientUnits="userSpaceOnUse">
      <stop stop-color="#2782FB"/>
      <stop offset="0.47" stop-color="#9A69EA"/>
      <stop offset="1" stop-color="#FB6131"/>
    </linearGradient>
    <filter id="cardShadow" x="0" y="0" width="1200" height="630" filterUnits="userSpaceOnUse" color-interpolation-filters="sRGB">
      <feDropShadow dx="0" dy="22" stdDeviation="30" flood-color="#0B0B0F" flood-opacity="0.12"/>
    </filter>
    <filter id="blur" x="-200" y="-200" width="1600" height="1030" filterUnits="userSpaceOnUse" color-interpolation-filters="sRGB">
      <feGaussianBlur stdDeviation="72"/>
    </filter>
    <clipPath id="panelClip">
      <rect x="755" y="54" width="391" height="522" rx="38"/>
    </clipPath>
  </defs>

  <rect width="1200" height="630" fill="url(#background)"/>
  <g filter="url(#blur)" opacity="0.28">
    <circle cx="151" cy="52" r="130" fill="#FB6131"/>
    <circle cx="655" cy="50" r="150" fill="#2782FB"/>
    <circle cx="1092" cy="560" r="150" fill="#7D73EB"/>
  </g>

  <g filter="url(#cardShadow)">
    <rect x="32" y="30" width="1136" height="570" rx="42" fill="white" fill-opacity="0.78"/>
    <rect x="32.5" y="30.5" width="1135" height="569" rx="41.5" stroke="#E4E7EE" stroke-opacity="0.92"/>
  </g>

  <g transform="translate(76 70) scale(1.05)">
    <path d="M7.447 27.907C7.315 28.132 7.156 28.337 6.995 28.542C6.52 29.147 5.872 29.522 5.205 29.86C4.976 29.976 4.748 30.065 4.712 30.339C4.672 30.643 4.928 30.746 5.139 30.867C5.166 30.883 5.197 30.891 5.227 30.903C6.933 31.604 8.697 32.102 10.505 32.461C12.467 32.851 14.447 33.079 16.445 33.147C17.676 33.189 18.906 33.161 20.134 33.057C21.588 32.933 23.003 32.652 24.359 32.091C25.993 31.414 27.42 30.448 28.639 29.164C30.313 27.398 31.433 25.325 32.101 22.998C32.646 21.098 32.835 19.162 32.682 17.19C32.584 15.933 32.365 14.698 31.96 13.508C31.468 12.06 30.838 10.672 30.059 9.348C29.095 7.711 27.81 6.39 26.239 5.348C23.638 3.62 20.753 2.787 17.642 2.738C15.723 2.708 13.858 3.018 12.078 3.77C11.73 3.917 11.361 4.014 11.015 4.165C9.308 4.907 7.895 6.025 6.777 7.513C5.727 8.913 5.067 10.487 4.719 12.195C4.422 13.654 4.423 15.123 4.564 16.601C4.633 17.316 4.884 17.976 5.084 18.654C5.124 19.101 5.352 19.492 5.51 19.896C5.768 20.557 6.065 21.199 6.277 21.883C6.467 22.497 6.772 23.08 7.064 23.658C7.385 24.295 7.652 24.943 7.693 25.661C7.727 26.281 7.775 26.904 7.58 27.514C7.538 27.646 7.419 27.752 7.447 27.907ZM16.911 35.363C14.765 35.347 12.018 35.051 9.303 34.449C7.52 34.053 5.775 33.539 4.101 32.804C2.847 32.254 1.653 31.598 0.662 30.63C0.309 30.284 0.114 29.864 0.296 29.366C0.497 28.816 0.886 28.469 1.477 28.36C1.971 28.269 2.471 28.217 2.945 28.018C3.761 27.675 4.223 27.078 4.441 26.227C4.606 25.582 4.466 24.982 4.28 24.392C3.961 23.378 3.615 22.373 3.269 21.367C2.739 19.824 2.206 18.278 1.994 16.65C1.891 15.864 1.888 15.07 1.985 14.287C2.11 13.27 2.241 12.252 2.524 11.262C2.801 10.287 3.169 9.355 3.641 8.457C4.123 7.539 4.638 6.647 5.29 5.841C6.678 4.126 8.405 2.87 10.436 2.01C12.674 1.063 14.992 0.539 17.427 0.545C18.862 0.548 20.276 0.704 21.672 1.032C24.198 1.624 26.497 2.691 28.531 4.306C30.005 5.476 31.236 6.862 32.107 8.538C32.357 9.02 32.6 9.506 32.856 9.985C32.934 10.131 33.033 10.2 33.192 10.242C34.351 10.546 35.511 10.849 36.654 11.211C36.941 11.302 37.216 11.416 37.433 11.641C37.83 12.055 37.818 12.593 37.394 12.979C37.308 13.059 37.21 13.127 37.111 13.192C36.511 13.585 35.906 13.97 35.311 14.369C35.135 14.487 34.982 14.638 34.823 14.779C34.663 14.921 34.619 15.093 34.659 15.311C34.988 17.086 35.025 18.875 34.812 20.663C34.541 22.923 33.895 25.074 32.818 27.089C31.99 28.638 30.955 30.03 29.684 31.242C28.672 32.204 27.524 32.973 26.304 33.648C24.956 34.394 23.499 34.772 22 35.026C20.526 35.276 19.038 35.363 16.911 35.363Z" fill="#2782FB"/>
    <path d="M5.078 18.655C5.201 17.962 5.568 17.404 6.034 16.895C6.744 16.117 7.554 15.463 8.531 15.07C9.76 14.575 11.034 14.238 12.38 14.356C14.648 14.554 16.502 15.524 17.892 17.348C18.424 18.045 18.822 18.814 19.07 19.649C19.479 21.023 19.509 22.408 19.134 23.802C18.733 25.293 17.947 26.546 16.787 27.545C15.78 28.412 14.61 28.976 13.292 29.223C11.94 29.476 10.62 29.365 9.331 28.911C8.699 28.689 8.102 28.383 7.562 27.978C7.524 27.951 7.481 27.931 7.441 27.908C7.414 27.753 7.533 27.647 7.575 27.515C7.769 26.905 7.722 26.283 7.687 25.663C7.647 24.944 7.38 24.296 7.058 23.659C6.767 23.081 6.462 22.498 6.271 21.884C6.059 21.2 5.763 20.558 5.505 19.897C5.347 19.493 5.119 19.102 5.078 18.655Z" fill="#FB6131"/>
    <path d="M21.618 12.428C21.594 10.86 22.826 9.923 24.016 9.903C25.256 9.881 26.38 11.111 26.346 12.379C26.311 13.712 25.171 14.791 23.819 14.77C22.59 14.751 21.593 13.689 21.618 12.428Z" fill="#2782FB"/>
  </g>
  <text x="128" y="95" fill="#737682" font-family="Helvetica Neue, Arial, sans-serif" font-size="18" font-weight="700" letter-spacing="1.4">SWIFTGGTEAM SKILL</text>

  <text x="72" y="226" fill="#0B0B0F" font-family="Helvetica Neue, Arial, sans-serif" font-size="116" font-weight="800" letter-spacing="-7">wwdc</text>
  <text x="72" y="330" fill="url(#headline)" font-family="Helvetica Neue, Arial, sans-serif" font-size="108" font-weight="800" letter-spacing="-7">quick look</text>

  <text x="78" y="386" fill="#565B68" font-family="Helvetica Neue, Arial, sans-serif" font-size="23" font-weight="500">
    <tspan x="78" dy="0">Query WWDC sessions, Resources, Code tabs,</tspan>
    <tspan x="78" dy="33">and transcripts directly from prompts.</tspan>
  </text>

  <g font-family="Helvetica Neue, Arial, sans-serif" font-size="17" font-weight="700">
    <rect x="72" y="482" width="178" height="48" rx="24" fill="#EEF5FF" stroke="#CFE1FC"/>
    <circle cx="100" cy="506" r="8" stroke="#2782FB" stroke-width="3"/>
    <path d="M106 512L112 518" stroke="#2782FB" stroke-width="3" stroke-linecap="round"/>
    <text x="125" y="512" fill="#225FAD">Search sessions</text>

    <rect x="263" y="482" width="180" height="48" rx="24" fill="#FFF3EE" stroke="#FFD7C8"/>
    <path d="M291 499V513M285 507L291 513L297 507" stroke="#FB6131" stroke-width="2.6" stroke-linecap="round" stroke-linejoin="round"/>
    <path d="M283 517H299" stroke="#FB6131" stroke-width="2.6" stroke-linecap="round"/>
    <text x="315" y="512" fill="#B74625">Open resources</text>

    <rect x="456" y="482" width="164" height="48" rx="24" fill="#F3F0FF" stroke="#DDD5FF"/>
    <path d="M485 499H496M485 506H496M485 513H493" stroke="#7D73EB" stroke-width="2.6" stroke-linecap="round"/>
    <text x="510" y="512" fill="#5D55B2">Read evidence</text>
  </g>

  <g clip-path="url(#panelClip)">
    <rect x="755" y="54" width="391" height="522" rx="38" fill="url(#panel)"/>
    <circle cx="1110" cy="90" r="170" stroke="url(#orb)" stroke-width="9" opacity="0.75"/>
    <circle cx="807" cy="550" r="156" stroke="url(#orb)" stroke-width="6" opacity="0.48"/>
    <circle cx="1012" cy="317" r="245" fill="url(#orb)" opacity="0.08"/>

    <rect x="794" y="98" width="312" height="132" rx="24" fill="white" fill-opacity="0.08" stroke="white" stroke-opacity="0.18"/>
    <text x="824" y="134" fill="#AEB5C8" font-family="Helvetica Neue, Arial, sans-serif" font-size="15" font-weight="700" letter-spacing="1.2">ASK THE ARCHIVE</text>
    <text x="824" y="174" fill="white" font-family="Helvetica Neue, Arial, sans-serif" font-size="24" font-weight="700">WWDC26 · SwiftUI</text>
    <rect x="824" y="194" width="182" height="7" rx="3.5" fill="url(#orb)"/>
    <rect x="1018" y="194" width="58" height="7" rx="3.5" fill="white" fill-opacity="0.15"/>

    <rect x="779" y="254" width="245" height="122" rx="24" fill="#FFFFFF" fill-opacity="0.94"/>
    <rect x="804" y="279" width="42" height="42" rx="13" fill="#EAF3FF"/>
    <path d="M817 299L823 305L834 291" stroke="#2782FB" stroke-width="3" stroke-linecap="round" stroke-linejoin="round"/>
    <text x="860" y="295" fill="#737682" font-family="Helvetica Neue, Arial, sans-serif" font-size="14" font-weight="700">KEY TAKEAWAY</text>
    <text x="860" y="321" fill="#0B0B0F" font-family="Helvetica Neue, Arial, sans-serif" font-size="18" font-weight="700">Evidence first.</text>
    <text x="804" y="350" fill="#737682" font-family="Helvetica Neue, Arial, sans-serif" font-size="14">Sessions · Resources · Code</text>

    <rect x="904" y="398" width="225" height="122" rx="24" fill="#FFFFFF" fill-opacity="0.1" stroke="#FFFFFF" stroke-opacity="0.18"/>
    <text x="932" y="430" fill="#AEB5C8" font-family="Helvetica Neue, Arial, sans-serif" font-size="13" font-weight="700" letter-spacing="1">TRANSCRIPT</text>
    <text x="932" y="462" fill="#FB8A66" font-family="Helvetica Neue, Arial, sans-serif" font-size="15" font-weight="700">05:30</text>
    <rect x="986" y="451" width="111" height="7" rx="3.5" fill="white" fill-opacity="0.82"/>
    <rect x="932" y="477" width="165" height="6" rx="3" fill="white" fill-opacity="0.24"/>
    <rect x="932" y="493" width="132" height="6" rx="3" fill="white" fill-opacity="0.15"/>
  </g>
  <rect x="755.5" y="54.5" width="390" height="521" rx="37.5" stroke="#252A3D"/>
</svg>
